{
  "asset" : {
    "generator" : "UE Viewer (umodel) build 1100",
    "version" : "2.0"
  },
  "scene" : 0,
  "scenes" : [
    {
      "nodes" : [ 0 ]
    }
  ],
  "nodes" : [
    {
      "name" : "SM_PipeValveBody",
      "mesh" : 0
    }
  ],
  "materials" : [
    {
      "name" : "M_PipeValveBody",
      "pbrMetallicRoughness" : {
        "baseColorFactor" : [ 0.3, 0.3, 0.3, 1.0 ],
        "metallicFactor" : 0.1,
        "roughnessFactor" : 0.5
      }
    }
  ],
  "meshes" : [
    {
      "primitives" : [
        {
          "attributes" : {
            "POSITION" : 1,
            "NORMAL" : 2,
            "TANGENT" : 3,
            "TEXCOORD_0" : 4,
            "TEXCOORD_1" : 5
          },
          "indices" : 0,
          "material" : 0
        }
      ],
      "name" : "SM_PipeValveBody"
    }
  ],
  "buffers" : [
    {
      "uri" : "SM_PipeValveBody.bin",
      "byteLength" : 46864
    }
  ],
  "bufferViews" : [
    {
      "buffer" : 0,
      "byteOffset" : 0,
      "byteLength" : 2960
    },
    {
      "buffer" : 0,
      "byteOffset" : 2960,
      "byteLength" : 9408
    },
    {
      "buffer" : 0,
      "byteOffset" : 12368,
      "byteLength" : 9408
    },
    {
      "buffer" : 0,
      "byteOffset" : 21776,
      "byteLength" : 12544
    },
    {
      "buffer" : 0,
      "byteOffset" : 34320,
      "byteLength" : 6272
    },
    {
      "buffer" : 0,
      "byteOffset" : 40592,
      "byteLength" : 6272
    }
  ],
  "accessors" : [
    {
      "bufferView" : 0,
      "componentType" : 5123,
      "count" : 1479,
      "type" : "SCALAR"
    },
    {
      "bufferView" : 1,
      "min" : [ -0.197216, -0.197402, -0.509598 ],
      "max" : [ 0.197216, 0.205239, 0.5104 ],
      "componentType" : 5126,
      "count" : 784,
      "type" : "VEC3"
    },
    {
      "bufferView" : 2,
      "componentType" : 5126,
      "count" : 784,
      "type" : "VEC3"
    },
    {
      "bufferView" : 3,
      "componentType" : 5126,
      "count" : 784,
      "type" : "VEC4"
    },
    {
      "bufferView" : 4,
      "componentType" : 5126,
      "count" : 784,
      "type" : "VEC2"
    },
    {
      "bufferView" : 5,
      "componentType" : 5126,
      "count" : 784,
      "type" : "VEC2"
    }
  ]
}
