{
  "asset" : {
    "generator" : "UE Viewer (umodel) build 1100",
    "version" : "2.0"
  },
  "scene" : 0,
  "scenes" : [
    {
      "nodes" : [ 0 ]
    }
  ],
  "nodes" : [
    {
      "name" : "SM_ValveWheel",
      "mesh" : 0
    }
  ],
  "materials" : [
    {
      "name" : "M_ValveWheel",
      "pbrMetallicRoughness" : {
        "baseColorFactor" : [ 0.3, 0.3, 0.3, 1.0 ],
        "metallicFactor" : 0.1,
        "roughnessFactor" : 0.5
      }
    }
  ],
  "meshes" : [
    {
      "primitives" : [
        {
          "attributes" : {
            "POSITION" : 1,
            "NORMAL" : 2,
            "TANGENT" : 3,
            "TEXCOORD_0" : 4,
            "TEXCOORD_1" : 5
          },
          "indices" : 0,
          "material" : 0
        }
      ],
      "name" : "SM_ValveWheel"
    }
  ],
  "buffers" : [
    {
      "uri" : "SM_ValveWheel.bin",
      "byteLength" : 15280
    }
  ],
  "bufferViews" : [
    {
      "buffer" : 0,
      "byteOffset" : 0,
      "byteLength" : 888
    },
    {
      "buffer" : 0,
      "byteOffset" : 888,
      "byteLength" : 3084
    },
    {
      "buffer" : 0,
      "byteOffset" : 3972,
      "byteLength" : 3084
    },
    {
      "buffer" : 0,
      "byteOffset" : 7056,
      "byteLength" : 4112
    },
    {
      "buffer" : 0,
      "byteOffset" : 11168,
      "byteLength" : 2056
    },
    {
      "buffer" : 0,
      "byteOffset" : 13224,
      "byteLength" : 2056
    }
  ],
  "accessors" : [
    {
      "bufferView" : 0,
      "componentType" : 5123,
      "count" : 444,
      "type" : "SCALAR"
    },
    {
      "bufferView" : 1,
      "min" : [ -0.144799, 0.205238, -0.144799 ],
      "max" : [ 0.144413, 0.319873, 0.144413 ],
      "componentType" : 5126,
      "count" : 257,
      "type" : "VEC3"
    },
    {
      "bufferView" : 2,
      "componentType" : 5126,
      "count" : 257,
      "type" : "VEC3"
    },
    {
      "bufferView" : 3,
      "componentType" : 5126,
      "count" : 257,
      "type" : "VEC4"
    },
    {
      "bufferView" : 4,
      "componentType" : 5126,
      "count" : 257,
      "type" : "VEC2"
    },
    {
      "bufferView" : 5,
      "componentType" : 5126,
      "count" : 257,
      "type" : "VEC2"
    }
  ]
}
